<?xml version="1.0" encoding="UTF-8" standalone="no"?>
<svg
   version="1.1"
   width="24"
   height="24"
   viewBox="140 120 700 780"
   id="svg1"
   sodipodi:docname="QuKiNotes_v2_Rainbow.svg"
   inkscape:version="1.4.3 (0d15f75, 2025-12-25)"
   xmlns:inkscape="http://www.inkscape.org/namespaces/inkscape"
   xmlns:sodipodi="http://sodipodi.sourceforge.net/DTD/sodipodi-0.dtd"
   xmlns:xlink="http://www.w3.org/1999/xlink"
   xmlns="http://www.w3.org/2000/svg"
   xmlns:svg="http://www.w3.org/2000/svg">
  <defs
     id="defs1">
    <linearGradient
       id="linearGradient39"
       inkscape:collect="always">
      <stop
         style="stop-color:#ff0000;stop-opacity:1;"
         offset="0.07286123"
         id="stop39" />
      <stop
         style="stop-color:#ff7f00;stop-opacity:1;"
         offset="0.17"
         id="stop43" />
      <stop
         style="stop-color:#dee200;stop-opacity:1;"
         offset="0.30874729"
         id="stop44" />
      <stop
         style="stop-color:#00ff00;stop-opacity:1;"
         offset="0.44968757"
         id="stop41" />
      <stop
         style="stop-color:#00ff7f;stop-opacity:1;"
         offset="0.50747007"
         id="stop47" />
      <stop
         style="stop-color:#00daff;stop-opacity:1;"
         offset="0.59309763"
         id="stop45" />
      <stop
         style="stop-color:#00caff;stop-opacity:1;"
         offset="0.64856797"
         id="stop46" />
      <stop
         style="stop-color:#007fff;stop-opacity:1;"
         offset="0.73235565"
         id="stop48" />
      <stop
         style="stop-color:#0000ff;stop-opacity:1;"
         offset="0.79958272"
         id="stop42" />
      <stop
         style="stop-color:#8b00ff;stop-opacity:1;"
         offset="0.8596279"
         id="stop49" />
      <stop
         style="stop-color:#8b00ff;stop-opacity:1;"
         offset="1"
         id="stop40" />
    </linearGradient>
    <linearGradient
       id="swatch26"
       inkscape:swatch="solid">
      <stop
         style="stop-color:#000000;stop-opacity:1;"
         offset="0"
         id="stop26" />
    </linearGradient>
    <linearGradient
       id="swatch23"
       inkscape:swatch="solid">
      <stop
         style="stop-color:#ff6600;stop-opacity:1;"
         offset="0"
         id="stop23" />
    </linearGradient>
    <linearGradient
       id="linearGradient5">
      <stop
         style="stop-color:#ff0000;stop-opacity:1;"
         offset="0"
         id="stop7" />
      <stop
         style="stop-color:#ff7f00;stop-opacity:1;"
         offset="0.17271295"
         id="stop15" />
      <stop
         style="stop-color:#ffff00;stop-opacity:1;"
         offset="0.33000001"
         id="stop13" />
      <stop
         style="stop-color:#00ff00;stop-opacity:1;"
         offset="0.5"
         id="stop14" />
      <stop
         style="stop-color:#00ffff;stop-opacity:1;"
         offset="0.67000002"
         id="stop16" />
      <stop
         style="stop-color:#0000ff;stop-opacity:1;"
         offset="0.82999998"
         id="stop17" />
      <stop
         style="stop-color:#8b00ff;stop-opacity:1;"
         offset="1"
         id="stop8" />
    </linearGradient>
    <linearGradient
       inkscape:collect="always"
       xlink:href="#linearGradient5"
       id="linearGradient6"
       x1="361.63568"
       y1="794.32959"
       x2="916.14368"
       y2="19.033457"
       gradientUnits="userSpaceOnUse" />
    <linearGradient
       inkscape:collect="always"
       xlink:href="#linearGradient39"
       id="linearGradient40"
       x1="270.56314"
       y1="700.92676"
       x2="824.5802"
       y2="805.91602"
       gradientUnits="userSpaceOnUse" />
  </defs>
  <sodipodi:namedview
     id="namedview1"
     pagecolor="#ffffff"
     bordercolor="#000000"
     borderopacity="0.25"
     inkscape:showpageshadow="2"
     inkscape:pageopacity="0.0"
     inkscape:pagecheckerboard="0"
     inkscape:deskcolor="#d1d1d1"
     inkscape:document-units="in"
     showgrid="false"
     inkscape:zoom="0.64306739"
     inkscape:cx="681.8881"
     inkscape:cy="681.8881"
     inkscape:window-width="1920"
     inkscape:window-height="1009"
     inkscape:window-x="-8"
     inkscape:window-y="-8"
     inkscape:window-maximized="1"
     inkscape:current-layer="svg1" />
  <path
     id="path1"
     fill="none"
     stroke="#000000"
     stroke-width="1"
     d="M 257,235 321,213.67 438,174.98 489,158 c 9.48,-3.16 21.05,-7.88 31,-8 17.43,-0.19 28.05,6.18 35.74,22 l 10.34,31 19.94,61 11.31,35 c 2.13,6.39 5.69,15.66 6.67,22 l -23,8.58 -47,18.02 C 489.48,365.41 443.22,384.14 409.04,419.01 384,444.56 368.48,477.23 358.02,511 l -10.82,53 c -10.24,53.07 -16.46,101.16 -36.8,152 -7.58,18.95 -17.58,37.82 -30.05,54 -4.67,6.06 -13.05449,14.6 -16.00413,23.03761 0,0 -5.84336,-17.05803 -12.68587,-38.03761 -6.84251,-20.97958 -29.33,-92 -29.33,-92 L 180,531 160.98,471 151,440 l 56,-18.66 50,-16.71 c 19.42,-9.85 33.05,-31.96 33.96,-53.63 0.57,-13.65 -7.16,-34 -11.91,-47 z M 817.89963,126.97522 c 0.91854,36.69826 5.52,73.0177 -0.0821,108.92441 -5.6021,35.90671 -10.56048,53.41731 -20.82768,77.10905 -10.2672,23.69173 -27.09515,43.40466 -52.96011,66.66911 -25.86497,23.26445 -57.76463,41.61714 -98.99628,57.41993 C 603.8018,452.90051 567.12,460.78 539,472 c -17.24,6.88 -33.88,15.79 -45.24,31 -7.76,10.39 -9.25,15.97 -12.76,28 l 31,-14.15 c 12.08,-5.15 28.21,-9.87 41,-13.43 0,0 37.06276,-11.2939 63,-18.96224 25.93724,-7.66835 71.99039,-23.73341 88.95416,-31.56825 16.96377,-7.83484 37.54474,-21.01305 59.99233,-39.47114 22.44759,-18.45809 30.44275,-27.94919 41.512,-45.32172 4.07892,39.89719 1.75228,72.43468 -5.69772,89.89468 -7.45,17.46 -15.20582,29.16943 -26.72388,40.75217 -11.51805,11.58273 -44.39383,32.30245 -63.37518,39.8981 -18.98135,7.59565 -59.74503,22.72737 -88.64054,30.41354 -28.89552,7.68618 -58.6085,16.46956 -83.0135,23.65456 -24.405,7.185 -46.60452,12.26405 -56.37732,22.22515 -9.77279,9.9611 -17.00811,23.86633 -18.45811,30.21633 20.95335,-8.54441 40.13037,-12.53048 73.38662,-21.82886 33.25625,-9.29839 64.85592,-15.34809 86.39901,-20.85787 21.54309,-5.50979 27.49629,-7.30116 52.64045,-14.50568 25.14416,-7.20452 41.27274,-13.20597 65.8796,-26.85169 24.60686,-13.64572 36.80359,-23.50148 53.874,-37.26799 1.20919,20.17649 -7.98585,43.94256 -13.02085,53.25756 -5.035,9.315 -8.63561,25.30068 -28.22563,43.54399 -19.59002,18.24331 -37.89177,25.33037 -58.63085,32.41648 -20.73908,7.0861 -44.75219,12.03753 -67.30216,17.30981 -43.84703,11.09862 -82.5019,17.54188 -116.02493,25.4452 -33.52302,7.90331 -42.40156,11.01938 -60.84099,26.1038 -10.31,10.07 -11.29092,17.75889 -14.19331,31.60338 22.21,-9.55 40.21003,-17.55613 64.82776,-24.40114 24.61772,-6.84501 67.04932,-15.9343 98.63821,-22.31906 31.58889,-6.38476 55.52433,-12.05699 74.84867,-16.52203 19.32434,-4.46504 39.16499,-11.10423 57.07317,-19.77582 17.90818,-8.67159 22.86497,-9.25638 40.14034,-28.98155 -2.20623,25.65593 -5.07428,48.7487 -13.11811,60.05921 -8.04384,11.3105 -18.77898,22.27856 -40.24252,34.6645 -21.46354,12.38594 -34.20112,16.03436 -86.36599,34.3673 C 581.74985,788.94366 527.99427,806.37439 494,817.67 460.00573,828.96561 451,832 451,832 l -15,4.69 -76,25.31 c -9.91,3.3 -32.94,11.89 -42,12 -22.69,0.25 -27.61633,-12.19544 -32.49546,-19.62396 -4.87913,-7.42852 -5.97353,-19.19622 -2.24506,-28.29983 3.72847,-9.10362 5.26639,-13.9352 13.61141,-25.04849 C 305.2159,789.91442 308.98,787.68 317.48,775 c 25.86,-38.55 38.32,-78.36 48.87,-123 8.87,-37.56 16.83,-105.08 27.4,-138 7.34,-22.9 19.72,-47.81 35.54,-66 24.63,-28.32 61.43162,-43.51331 85.71,-54.43 24.27838,-10.91669 64.39437,-25.98831 99.48327,-40.18331 35.0889,-14.195 83.39782,-42.7654 114.69393,-80.55647 31.29611,-37.79107 76.92066,-115.96809 88.72243,-145.855 z M 228,247 h 2 l 4.28,13 17.23,53 c 3.78,11.33 8.29,22.96 8.75,35 0.5,13.36 -4.88,22.55 -16.26,29.53 -8.58,5.27 -23.99,8.35 -34,11.81 l -64,20.66 22.75,-46 42.5,-84 z"
     sodipodi:nodetypes="cccccccccccccccccczcccccccccczzzzcsccczzzczzzzzzczzzzczzzzzcczzzzczzzzcccczzzcccszzzcccccccccccc"
     style="display:none;stroke-width:0.850395;stroke-linecap:round;stroke-linejoin:round;stroke-dasharray:none">
    <title
       id="title1">Selection</title>
  </path>
  <path
     id="path2"
     fill="none"
     stroke="#000000"
     stroke-width="1"
     d="M 257,235 321,213.67 438,174.98 489,158 c 9.48,-3.16 21.05,-7.88 31,-8 17.43,-0.19 28.05,6.18 35.74,22 l 10.34,31 19.94,61 11.31,35 c 2.13,6.39 5.69,15.66 6.67,22 l -23,8.58 -47,18.02 C 489.48,365.41 443.22,384.14 409.04,419.01 384,444.56 368.48,477.23 358.02,511 l -10.82,53 c -10.24,53.07 -16.46,101.16 -36.8,152 -7.58,18.95 -17.58,37.82 -30.05,54 -4.67,6.06 -13.05449,14.6 -16.00413,23.03761 0,0 -5.84336,-17.05803 -12.68587,-38.03761 -6.84251,-20.97958 -29.33,-92 -29.33,-92 L 180,531 160.98,471 151,440 l 56,-18.66 50,-16.71 c 19.42,-9.85 33.05,-31.96 33.96,-53.63 0.57,-13.65 -7.16,-34 -11.91,-47 z M 817.89963,126.97522 c 0.91854,36.69826 5.52,73.0177 -0.0821,108.92441 -5.6021,35.90671 -10.56048,53.41731 -20.82768,77.10905 -10.2672,23.69173 -27.09515,43.40466 -52.96011,66.66911 -25.86497,23.26445 -57.76463,41.61714 -98.99628,57.41993 C 603.8018,452.90051 567.12,460.78 539,472 c -17.24,6.88 -33.88,15.79 -45.24,31 -7.76,10.39 -9.25,15.97 -12.76,28 l 31,-14.15 c 12.08,-5.15 28.21,-9.87 41,-13.43 0,0 37.06276,-11.2939 63,-18.96224 25.93724,-7.66835 71.99039,-23.73341 88.95416,-31.56825 16.96377,-7.83484 37.54474,-21.01305 59.99233,-39.47114 22.44759,-18.45809 30.44275,-27.94919 41.512,-45.32172 4.07892,39.89719 1.75228,72.43468 -5.69772,89.89468 -7.45,17.46 -15.20582,29.16943 -26.72388,40.75217 -11.51805,11.58273 -44.39383,32.30245 -63.37518,39.8981 -18.98135,7.59565 -59.74503,22.72737 -88.64054,30.41354 -28.89552,7.68618 -58.6085,16.46956 -83.0135,23.65456 -24.405,7.185 -46.60452,12.26405 -56.37732,22.22515 -9.77279,9.9611 -17.00811,23.86633 -18.45811,30.21633 20.95335,-8.54441 40.13037,-12.53048 73.38662,-21.82886 33.25625,-9.29839 64.85592,-15.34809 86.39901,-20.85787 21.54309,-5.50979 27.49629,-7.30116 52.64045,-14.50568 25.14416,-7.20452 41.27274,-13.20597 65.8796,-26.85169 24.60686,-13.64572 36.80359,-23.50148 53.874,-37.26799 1.20919,20.17649 -7.98585,43.94256 -13.02085,53.25756 -5.035,9.315 -8.63561,25.30068 -28.22563,43.54399 -19.59002,18.24331 -37.89177,25.33037 -58.63085,32.41648 -20.73908,7.0861 -44.75219,12.03753 -67.30216,17.30981 -43.84703,11.09862 -82.5019,17.54188 -116.02493,25.4452 -33.52302,7.90331 -42.40156,11.01938 -60.84099,26.1038 -10.31,10.07 -11.29092,17.75889 -14.19331,31.60338 22.21,-9.55 40.21003,-17.55613 64.82776,-24.40114 24.61772,-6.84501 67.04932,-15.9343 98.63821,-22.31906 31.58889,-6.38476 55.52433,-12.05699 74.84867,-16.52203 19.32434,-4.46504 39.16499,-11.10423 57.07317,-19.77582 17.90818,-8.67159 22.86497,-9.25638 40.14034,-28.98155 -2.20623,25.65593 -5.07428,48.7487 -13.11811,60.05921 -8.04384,11.3105 -18.77898,22.27856 -40.24252,34.6645 -21.46354,12.38594 -34.20112,16.03436 -86.36599,34.3673 C 581.74985,788.94366 527.99427,806.37439 494,817.67 460.00573,828.96561 451,832 451,832 l -15,4.69 -76,25.31 c -9.91,3.3 -32.94,11.89 -42,12 -22.69,0.25 -27.61633,-12.19544 -32.49546,-19.62396 -4.87913,-7.42852 -5.97353,-19.19622 -2.24506,-28.29983 3.72847,-9.10362 5.26639,-13.9352 13.61141,-25.04849 C 305.2159,789.91442 308.98,787.68 317.48,775 c 25.86,-38.55 38.32,-78.36 48.87,-123 8.87,-37.56 16.83,-105.08 27.4,-138 7.34,-22.9 19.72,-47.81 35.54,-66 24.63,-28.32 61.43162,-43.51331 85.71,-54.43 24.27838,-10.91669 64.39437,-25.98831 99.48327,-40.18331 35.0889,-14.195 83.39782,-42.7654 114.69393,-80.55647 31.29611,-37.79107 76.92066,-115.96809 88.72243,-145.855 z M 228,247 h 2 l 4.28,13 17.23,53 c 3.78,11.33 8.29,22.96 8.75,35 0.5,13.36 -4.88,22.55 -16.26,29.53 -8.58,5.27 -23.99,8.35 -34,11.81 l -64,20.66 22.75,-46 42.5,-84 z"
     sodipodi:nodetypes="cccccccccccccccccczcccccccccczzzzcsccczzzczzzzzzczzzzczzzzzcczzzzczzzzcccczzzcccszzzcccccccccccc"
     style="display:none;fill:#ff6600;stroke-width:0.283465;stroke-linecap:round;stroke-linejoin:round;stroke-dasharray:none">
    <title
       id="title2">Selection</title>
  </path>
  <path
     id="path3"
     fill="none"
     stroke="#000000"
     stroke-width="1"
     d="m 817.89963,126.97522 c 0.91854,36.69826 5.52,73.0177 -0.0821,108.92441 -5.6021,35.90671 -10.56048,53.41731 -20.82768,77.10905 -10.2672,23.69173 -27.09515,43.40466 -52.96011,66.66911 -25.86497,23.26445 -57.76463,41.61714 -98.99628,57.41993 C 603.8018,452.90051 567.12,460.78 539,472 c -17.24,6.88 -33.88,15.79 -45.24,31 -7.76,10.39 -9.25,15.97 -12.76,28 l 31,-14.15 c 12.08,-5.15 28.21,-9.87 41,-13.43 0,0 37.06276,-11.2939 63,-18.96224 25.93724,-7.66835 71.99039,-23.73341 88.95416,-31.56825 16.96377,-7.83484 37.54474,-21.01305 59.99233,-39.47114 22.44759,-18.45809 30.44275,-27.94919 41.512,-45.32172 4.07892,39.89719 1.75228,72.43468 -5.69772,89.89468 -7.45,17.46 -15.20582,29.16943 -26.72388,40.75217 -11.51805,11.58273 -44.39383,32.30245 -63.37518,39.8981 -18.98135,7.59565 -59.74503,22.72737 -88.64054,30.41354 -28.89552,7.68618 -58.6085,16.46956 -83.0135,23.65456 -24.405,7.185 -46.60452,12.26405 -56.37732,22.22515 -9.77279,9.9611 -17.00811,23.86633 -18.45811,30.21633 20.95335,-8.54441 40.13037,-12.53048 73.38662,-21.82886 33.25625,-9.29839 64.85592,-15.34809 86.39901,-20.85787 21.54309,-5.50979 27.49629,-7.30116 52.64045,-14.50568 25.14416,-7.20452 41.27274,-13.20597 65.8796,-26.85169 24.60686,-13.64572 36.80359,-23.50148 53.874,-37.26799 1.20919,20.17649 -7.98585,43.94256 -13.02085,53.25756 -5.035,9.315 -8.63561,25.30068 -28.22563,43.54399 -19.59002,18.24331 -37.89177,25.33037 -58.63085,32.41648 -20.73908,7.0861 -44.75219,12.03753 -67.30216,17.30981 -43.84703,11.09862 -82.5019,17.54188 -116.02493,25.4452 -33.52302,7.90331 -42.40156,11.01938 -60.84099,26.1038 -10.31,10.07 -11.29092,17.75889 -14.19331,31.60338 22.21,-9.55 40.21003,-17.55613 64.82776,-24.40114 24.61772,-6.84501 67.04932,-15.9343 98.63821,-22.31906 31.58889,-6.38476 55.52433,-12.05699 74.84867,-16.52203 19.32434,-4.46504 39.16499,-11.10423 57.07317,-19.77582 17.90818,-8.67159 22.86497,-9.25638 40.14034,-28.98155 -2.20623,25.65593 -5.07428,48.7487 -13.11811,60.05921 -8.04384,11.3105 -18.77898,22.27856 -40.24252,34.6645 -21.46354,12.38594 -34.20112,16.03436 -86.36599,34.3673 C 581.74985,788.94366 527.99427,806.37439 494,817.67 460.00573,828.96561 451,832 451,832 l -15,4.69 -76,25.31 c -9.91,3.3 -32.94,11.89 -42,12 -22.69,0.25 -27.61633,-12.19544 -32.49546,-19.62396 -4.87913,-7.42852 -5.97353,-19.19622 -2.24506,-28.29983 3.72847,-9.10362 5.26639,-13.9352 13.61141,-25.04849 C 305.2159,789.91442 308.98,787.68 317.48,775 c 25.86,-38.55 38.32,-78.36 48.87,-123 8.87,-37.56 16.83,-105.08 27.4,-138 7.34,-22.9 19.72,-47.81 35.54,-66 24.63,-28.32 61.43162,-43.51331 85.71,-54.43 24.27838,-10.91669 64.39437,-25.98831 99.48327,-40.18331 35.0889,-14.195 83.39782,-42.7654 114.69393,-80.55647 31.29611,-37.79107 76.92066,-115.96809 88.72243,-145.855 z"
     sodipodi:nodetypes="czzzzcsccczzzczzzzzzczzzzczzzzzcczzzzczzzzcccczzzcccszzzc"
     style="display:none;fill:url(#linearGradient6);fill-opacity:1;stroke-width:2.83465;stroke-linecap:round;stroke-linejoin:round;stroke-dasharray:none"
     inkscape:label="wing_orange">
    <title
       id="title3"
       style="fill:url(#linearGradient6);fill-opacity:1">Selection</title>
  </path>
  <path
     id="path4"
     fill="none"
     stroke="#000000"
     stroke-width="1"
     d="M 257,235 321,213.67 438,174.98 489,158 c 9.48,-3.16 21.05,-7.88 31,-8 17.43,-0.19 28.05,6.18 35.74,22 l 10.34,31 19.94,61 11.31,35 c 2.13,6.39 5.69,15.66 6.67,22 l -23,8.58 -47,18.02 C 489.48,365.41 443.22,384.14 409.04,419.01 384,444.56 368.48,477.23 358.02,511 l -10.82,53 c -10.24,53.07 -16.46,101.16 -36.8,152 -7.58,18.95 -17.58,37.82 -30.05,54 -4.67,6.06 -13.05449,14.6 -16.00413,23.03761 0,0 -5.84336,-17.05803 -12.68587,-38.03761 -6.84251,-20.97958 -29.33,-92 -29.33,-92 L 180,531 160.98,471 151,440 l 56,-18.66 50,-16.71 c 19.42,-9.85 33.05,-31.96 33.96,-53.63 0.57,-13.65 -7.16,-34 -11.91,-47 z"
     sodipodi:nodetypes="cccccccccccccccccczccccccccc"
     style="display:inline;stroke-width:2.83464989;stroke-linecap:round;stroke-linejoin:round;stroke-dasharray:none;fill:#ff6600"
     inkscape:label="note">
    <title
       id="title4">Selection</title>
  </path>
  <path
     id="path5"
     fill="none"
     stroke="#000000"
     stroke-width="1"
     d="m 228,247 h 2 l 4.28,13 17.23,53 c 3.78,11.33 8.29,22.96 8.75,35 0.5,13.36 -4.88,22.55 -16.26,29.53 -8.58,5.27 -23.99,8.35 -34,11.81 l -64,20.66 22.75,-46 42.5,-84 z"
     sodipodi:nodetypes="ccccccccccc"
     style="display:inline;stroke-width:2.83464989;stroke-linecap:round;stroke-linejoin:round;stroke-dasharray:none;fill:#ff6600"
     inkscape:label="fold">
    <title
       id="title5">Selection</title>
  </path>
  <path
     id="path13"
     stroke="#000000"
     stroke-width="1"
     d="m 817.89963,126.97522 c 0.91854,36.69826 5.52,73.0177 -0.0821,108.92441 -5.6021,35.90671 -10.56048,53.41731 -20.82768,77.10905 -10.2672,23.69173 -27.09515,43.40466 -52.96011,66.66911 -25.86497,23.26445 -57.76463,41.61714 -98.99628,57.41993 C 603.8018,452.90051 567.12,460.78 539,472 c -17.24,6.88 -33.88,15.79 -45.24,31 -7.76,10.39 -9.25,15.97 -12.76,28 l 31,-14.15 c 12.08,-5.15 28.21,-9.87 41,-13.43 0,0 37.06276,-11.2939 63,-18.96224 25.93724,-7.66835 71.99039,-23.73341 88.95416,-31.56825 16.96377,-7.83484 37.54474,-21.01305 59.99233,-39.47114 22.44759,-18.45809 30.44275,-27.94919 41.512,-45.32172 4.07892,39.89719 1.75228,72.43468 -5.69772,89.89468 -7.45,17.46 -15.20582,29.16943 -26.72388,40.75217 -11.51805,11.58273 -44.39383,32.30245 -63.37518,39.8981 -18.98135,7.59565 -59.74503,22.72737 -88.64054,30.41354 -28.89552,7.68618 -58.6085,16.46956 -83.0135,23.65456 -24.405,7.185 -46.60452,12.26405 -56.37732,22.22515 -9.77279,9.9611 -17.00811,23.86633 -18.45811,30.21633 20.95335,-8.54441 40.13037,-12.53048 73.38662,-21.82886 33.25625,-9.29839 64.85592,-15.34809 86.39901,-20.85787 21.54309,-5.50979 27.49629,-7.30116 52.64045,-14.50568 25.14416,-7.20452 41.27274,-13.20597 65.8796,-26.85169 24.60686,-13.64572 36.80359,-23.50148 53.874,-37.26799 1.20919,20.17649 -7.98585,43.94256 -13.02085,53.25756 -5.035,9.315 -8.63561,25.30068 -28.22563,43.54399 -19.59002,18.24331 -37.89177,25.33037 -58.63085,32.41648 -20.73908,7.0861 -44.75219,12.03753 -67.30216,17.30981 -43.84703,11.09862 -82.5019,17.54188 -116.02493,25.4452 -33.52302,7.90331 -42.40156,11.01938 -60.84099,26.1038 -10.31,10.07 -11.29092,17.75889 -14.19331,31.60338 22.21,-9.55 40.21003,-17.55613 64.82776,-24.40114 24.61772,-6.84501 67.04932,-15.9343 98.63821,-22.31906 31.58889,-6.38476 55.52433,-12.05699 74.84867,-16.52203 19.32434,-4.46504 39.16499,-11.10423 57.07317,-19.77582 17.90818,-8.67159 22.86497,-9.25638 40.14034,-28.98155 -2.20623,25.65593 -5.07428,48.7487 -13.11811,60.05921 -8.04384,11.3105 -18.77898,22.27856 -40.24252,34.6645 -21.46354,12.38594 -34.20112,16.03436 -86.36599,34.3673 C 581.74985,788.94366 527.99427,806.37439 494,817.67 460.00573,828.96561 451,832 451,832 l -15,4.69 -76,25.31 c -9.91,3.3 -32.94,11.89 -42,12 -22.69,0.25 -27.61633,-12.19544 -32.49546,-19.62396 -4.87913,-7.42852 -5.97353,-19.19622 -2.24506,-28.29983 3.72847,-9.10362 5.26639,-13.9352 13.61141,-25.04849 C 305.2159,789.91442 308.98,787.68 317.48,775 c 25.86,-38.55 38.32,-78.36 48.87,-123 8.87,-37.56 16.83,-105.08 27.4,-138 7.34,-22.9 19.72,-47.81 35.54,-66 24.63,-28.32 61.43162,-43.51331 85.71,-54.43 24.27838,-10.91669 64.39437,-25.98831 99.48327,-40.18331 35.0889,-14.195 83.39782,-42.7654 114.69393,-80.55647 31.29611,-37.79107 76.92066,-115.96809 88.72243,-145.855 z"
     sodipodi:nodetypes="czzzzcsccczzzczzzzzzczzzzczzzzzcczzzzczzzzcccczzzcccszzzc"
     style="display:inline;mix-blend-mode:normal;fill:url(#linearGradient40);fill-opacity:1;fill-rule:evenodd;stroke-width:2.83465;stroke-linecap:round;stroke-linejoin:round;stroke-dasharray:none"
     inkscape:label="wing_rainbow">
    <title
       id="title13"
       style="fill:url(#linearGradient40);fill-opacity:1">Selection</title>
  </path>
</svg>
